<?xml version="1.0" encoding="UTF-8"?>
<svg version="1.1" xmlns="http://www.w3.org/2000/svg" width="1024" height="1024">
<path d="M0 0 C337.92 0 675.84 0 1024 0 C1024 337.92 1024 675.84 1024 1024 C686.08 1024 348.16 1024 0 1024 C0 686.08 0 348.16 0 0 Z " fill="#FDFDFD" transform="translate(0,0)"/>
<path d="M0 0 C29.7 0 59.4 0 90 0 C98.39300565 23.95673458 106.7018799 47.93432891 114.84283447 71.97753906 C119.07673178 84.47650777 123.35749046 96.95308632 127.8125 109.375 C131.7427179 120.34494672 135.49447862 131.3622826 139.15719604 142.4234314 C144.32714297 158.03500137 149.59190091 173.61389896 154.875 189.1875 C155.0924865 189.82872425 155.30997299 190.4699485 155.53404999 191.13060379 C160.75656602 206.5282175 165.98983128 221.92213085 171.2489624 237.30728149 C172.05845598 239.67566817 172.86745503 242.04422314 173.67626953 244.4128418 C173.94717407 245.20616409 174.21807861 245.99948639 174.49719238 246.81684875 C175.05704063 248.4563941 175.61685469 250.09595112 176.17663574 251.73551941 C177.91823236 256.83562925 179.66215439 261.93493677 181.40771484 267.03369141 C183.37383662 272.77780544 185.33638109 278.52312552 187.29517078 284.26974392 C188.37144255 287.42682563 189.44989508 290.58311974 190.53152466 293.7383728 C191.73902262 297.26157587 192.94046829 300.78679055 194.140625 304.3125 C194.50141647 305.36069412 194.86220795 306.40888824 195.2339325 307.48884583 C195.56955704 308.47865952 195.90518158 309.46847321 196.25097656 310.48828125 C196.54184143 311.33946533 196.8327063 312.19064941 197.13238525 313.06762695 C198.29298587 316.99023658 199.11260169 321.00670758 200 325 C176.9 325 153.8 325 130 325 C127.5851583 318.96289575 125.25094161 313.04294758 123.23046875 306.88671875 C122.98837173 306.15773376 122.74627472 305.42874878 122.49684143 304.67767334 C121.72407824 302.34859094 120.95561242 300.01811986 120.1875 297.6875 C119.65487171 296.07747284 119.12199258 294.46752864 118.58886719 292.85766602 C117.79573449 290.46250703 117.00283448 288.06727425 116.21121216 285.6716156 C114.71121862 281.13457268 113.19554858 276.60334864 111.66015625 272.078125 C111.33055908 271.10399658 111.00096191 270.12986816 110.66137695 269.1262207 C110.07083719 267.38402556 109.47712248 265.64290209 108.87963867 263.90307617 C107.83849212 260.8185764 107 258.27950702 107 255 C66.08 255 25.16 255 -17 255 C-17.66 257.97 -18.32 260.94 -19 264 C-19.60723795 266.00409433 -20.25065225 267.99779651 -20.93945312 269.9753418 C-21.31324097 271.05643723 -21.68702881 272.13753265 -22.07214355 273.25138855 C-22.47114868 274.38917252 -22.87015381 275.52695648 -23.28125 276.69921875 C-23.69540161 277.89303665 -24.10955322 279.08685455 -24.53625488 280.31684875 C-25.63009048 283.46721635 -26.72815284 286.61604138 -27.82843018 289.76416016 C-28.94502537 292.9620287 -30.05637415 296.16171863 -31.16796875 299.36132812 C-32.41961272 302.96328296 -33.67192706 306.56498807 -34.92785645 310.16545105 C-35.30164429 311.23709 -35.67543213 312.30872894 -36.06054688 313.4128418 C-36.3876062 314.34944138 -36.71466553 315.28604095 -37.05163574 316.25102234 C-38.05527972 319.16023664 -39.02681815 322.08045445 -40 325 C-63.43 325 -86.86 325 -111 325 C-109.75752117 320.0300847 -108.53072785 315.33676025 -106.92578125 310.51171875 C-106.51384521 309.27196289 -106.10190918 308.03220703 -105.67749023 306.75488281 C-105.22277 305.39899578 -104.767763 304.04320489 -104.3125 302.6875 C-104.075242 301.97783081 -103.83798401 301.26816162 -103.59353638 300.5369873 C-99.17926129 287.33902219 -94.60185073 274.19958668 -89.99673462 261.06723022 C-84.56659728 245.57752777 -79.26086922 230.04794334 -74 214.5 C-68.2833454 197.6075268 -62.4961828 180.74329119 -56.59326172 163.91503906 C-51.29752261 148.8095331 -46.13137817 133.66206077 -41 118.5 C-35.24208492 101.48699513 -29.41695301 84.50078965 -23.47259521 67.55203247 C-17.54191882 50.63810744 -11.7582549 33.67554981 -6.01318359 16.69775391 C-5.68465393 15.7284343 -5.35612427 14.75911469 -5.01763916 13.76042175 C-4.40042424 11.93900943 -3.78443651 10.11718065 -3.16986084 8.2948761 C-2.8974054 7.49108017 -2.62494995 6.68728424 -2.34423828 5.85913086 C-2.10746368 5.15831894 -1.87068909 4.45750702 -1.6267395 3.73545837 C-1 2 -1 2 0 0 Z " fill="#2166D4" transform="translate(292,334)"/>
<path d="M0 0 C21.45 0 42.9 0 65 0 C65 40.92 65 81.84 65 124 C109.22 124 153.44 124 199 124 C199 83.08 199 42.16 199 0 C209.704375 -0.020625 220.40875 -0.04125 231.4375 -0.0625 C234.82185303 -0.071604 238.20620605 -0.08070801 241.69311523 -0.09008789 C244.35660767 -0.09300674 247.02010055 -0.09555537 249.68359375 -0.09765625 C250.72834618 -0.10157631 250.72834618 -0.10157631 251.79420471 -0.10557556 C253.83601779 -0.11285608 255.87785168 -0.11333839 257.91967773 -0.11352539 C259.64842384 -0.11685631 259.64842384 -0.11685631 261.41209412 -0.12025452 C264 0 264 0 265 1 C265.09822017 2.7192627 265.12555593 4.44259921 265.12584114 6.16466522 C265.12975276 7.8544319 265.12975276 7.8544319 265.13374341 9.57833529 C265.13039732 11.45810729 265.13039732 11.45810729 265.12698364 13.37585449 C265.12854363 14.69499076 265.13010362 16.01412704 265.13171089 17.37323713 C265.13590882 21.05176405 265.13381144 24.73026522 265.13072467 28.40879226 C265.12847266 32.36929616 265.13194918 36.32979546 265.13470459 40.29029846 C265.13916343 48.05564748 265.13818532 55.82098685 265.13529195 63.58633626 C265.13303836 69.89446729 265.1327252 76.20259561 265.13381577 82.51072693 C265.133969 83.4067444 265.13412223 84.30276186 265.13428011 85.22593138 C265.13459982 87.04587511 265.13492403 88.86581885 265.1352527 90.68576258 C265.13810782 107.77239882 265.13481996 124.8590297 265.12945233 141.94566506 C265.12498426 156.62344736 265.12576019 171.30122175 265.13037109 185.97900391 C265.13571628 203.00231637 265.13783313 220.02562413 265.13475883 237.04893732 C265.13444026 238.86238257 265.13412589 240.67582782 265.13381577 242.48927307 C265.13366149 243.38164499 265.13350721 244.2740169 265.13334826 245.19343039 C265.13248294 251.49780545 265.13394631 257.80217753 265.13629532 264.10655212 C265.13909291 271.78399001 265.13835594 279.46141767 265.13301457 287.13885438 C265.130377 291.05990689 265.12937344 294.98094231 265.13266373 298.90199471 C265.13616858 303.14272668 265.13199867 307.38341508 265.12698364 311.62414551 C265.12921436 312.87732685 265.13144509 314.13050818 265.13374341 315.42166471 C265.13113566 316.54817584 265.12852791 317.67468696 265.12584114 318.83533478 C265.12567879 319.81561032 265.12551644 320.79588586 265.12534916 321.80586672 C265 324 265 324 264 325 C262.01112506 325.09930533 260.01869583 325.12799462 258.02734375 325.12939453 C256.1103064 325.13412277 256.1103064 325.13412277 254.15454102 325.13894653 C252.74886033 325.13715675 251.34317995 325.1351058 249.9375 325.1328125 C248.50642887 325.13348558 247.07535785 325.13445564 245.64428711 325.13571167 C242.64142776 325.13718844 239.6385981 325.13503476 236.63574219 325.13037109 C232.77847429 325.12467381 228.92127596 325.12795292 225.06401062 325.13394356 C222.10786409 325.13754974 219.15173417 325.13641032 216.19558716 325.13381577 C214.77295931 325.13314665 213.35032997 325.13397437 211.92770386 325.13629532 C209.94268826 325.13882274 207.95766741 325.13429042 205.97265625 325.12939453 C204.27508179 325.12820114 204.27508179 325.12820114 202.54321289 325.12698364 C200 325 200 325 199 324 C198.90363162 322.21572813 198.87812547 320.42760347 198.87974548 318.64073181 C198.87768349 316.89693993 198.87768349 316.89693993 198.87557983 315.11791992 C198.87917511 313.83111328 198.88277039 312.54430664 198.88647461 311.21850586 C198.88675648 309.85876976 198.88659875 308.4990335 198.8860321 307.13929749 C198.88574413 303.43698222 198.89164088 299.73469908 198.89860606 296.03239131 C198.90483957 292.16731219 198.9054434 288.30223242 198.90663147 284.43714905 C198.90974479 277.11315318 198.9179582 269.78917216 198.92798096 262.46518284 C198.9412273 252.57174343 198.94664199 242.67829998 198.95248318 232.78485394 C198.96189809 217.18989149 198.98181699 201.59496039 199 186 C154.78 186 110.56 186 65 186 C65 231.87 65 277.74 65 325 C43.55 325 22.1 325 0 325 C0 217.75 0 110.5 0 0 Z " fill="#2065D4" transform="translate(530,334)"/>
<path d="M0 0 C2.11617171 3.17425757 3.07285666 5.89375834 4.2578125 9.515625 C4.47758759 10.18192932 4.69736267 10.84823364 4.92379761 11.534729 C5.40566424 12.99657534 5.88556597 14.45907044 6.36376953 15.92211914 C7.69329973 19.98788901 9.03860093 24.04844009 10.3828125 28.109375 C10.67069641 28.98005615 10.95858032 29.8507373 11.25518799 30.74780273 C14.43727915 40.35380423 17.70614219 49.92993046 20.97747803 59.50582886 C23.99255322 68.33463779 26.9964692 77.16725824 30 86 C30.31356445 86.92182068 30.62712891 87.84364136 30.95019531 88.793396 C32.70974716 93.9689888 34.462631 99.14674746 36.20507812 104.328125 C36.73027958 105.88695389 37.25758528 107.44507558 37.78710938 109.00244141 C38.50962407 111.12865915 39.22456191 113.25727422 39.9375 115.38671875 C40.33839844 116.57483154 40.73929687 117.76294434 41.15234375 118.98706055 C42 122 42 122 42 126 C13.62 126 -14.76 126 -44 126 C-40.62524413 114.75081375 -40.62524413 114.75081375 -39.23266602 110.81225586 C-38.75816513 109.46460144 -38.75816513 109.46460144 -38.27407837 108.08972168 C-37.93742157 107.14101196 -37.60076477 106.19230225 -37.25390625 105.21484375 C-36.89034027 104.18403687 -36.52677429 103.15322998 -36.15219116 102.09118652 C-34.9577398 98.70587439 -33.76011469 95.3216942 -32.5625 91.9375 C-31.29421336 88.3457468 -30.02674864 84.75370426 -28.75935364 81.16163635 C-27.87630179 78.6589708 -26.99302124 76.15638719 -26.10942078 73.65391541 C-22.84948923 64.41948637 -19.60478175 55.17978203 -16.3671875 45.9375 C-15.90561936 44.62016116 -15.44404611 43.30282412 -14.98246765 41.98548889 C-13.19254556 36.87665398 -11.4028401 31.76774381 -9.61502075 26.65817261 C-8.37842127 23.12464273 -7.14050013 19.59157833 -5.90234375 16.05859375 C-5.53547455 15.00893433 -5.16860535 13.9592749 -4.7906189 12.87780762 C-4.45100128 11.90935913 -4.11138367 10.94091064 -3.76147461 9.94311523 C-3.46792587 9.10449448 -3.17437714 8.26587372 -2.87193298 7.40184021 C-1.96781707 4.91134839 -0.99696229 2.45463566 0 0 Z " fill="#FBFCFD" transform="translate(337,405)"/>
<path d="M0 0 C0.79083984 0.00974854 1.58167969 0.01949707 2.39648438 0.02954102 C12.89079748 0.34751784 19.38342909 3.81993019 26.98828125 11.0546875 C34.98564536 19.97313742 34.97614672 30.64800433 34.39453125 41.98535156 C33.52108363 49.93182609 28.8054606 56.78224933 22.96875 62.04296875 C13.68318484 69.06616104 2.36159596 70.6430116 -9 69.16015625 C-17.38796652 67.38447785 -25.05851414 63.49885439 -30.40234375 56.71484375 C-36.09643511 47.90939213 -36.95444702 38.73630578 -35.875 28.4375 C-33.54748399 17.98982984 -28.30625419 10.57328223 -19.4140625 4.76171875 C-12.934756 1.3825112 -7.31937602 -0.10113534 0 0 Z " fill="#2165D4" transform="translate(875.875,591.5625)"/>
</svg>
